<svg id="Layer_1" xmlns="http://www.w3.org/2000/svg" viewBox="0 0 1199.9 1100"><style>.st0{fill:#846A55;} .st1{fill:#735945;} .st2{fill:#3A8E68;} .st3{fill:#3DBD78;} .st4{fill:#FFDC70;} .st5{fill:#FFE8A3;} .st6{opacity:0.1;} .st7{fill:#FFC30C;} .st8{fill:#F58B24;} .st9{fill:#388E69;} .st10{fill:#C1F784;} .st11{fill:#344F24;} .st12{fill:#5D8245;} .st13{fill:#334D23;} .st14{fill:#957A64;} .st15{fill:#D0AE94;} .st16{fill:#FFF2CB;}</style><path class="st0" d="M577 391l-47-69.3 63.4-27.3 21 81"/><path class="st1" d="M596.5 458.4l-39.7-78 63.7-19.7 11.3 86.7"/><path class="st0" d="M610.6 520.2L575 440l67.4-16 4 87.7"/><path class="st1" d="M620.5 590.5l-29.8-84.7 70-11-2.8 90"/><path class="st0" d="M624.6 663.6L601.2 577l70.7-5.6-9.7 89.2"/><path class="st1" d="M624 740.7L605.7 650l73-1-15.8 91.2"/><path class="st0" d="M616 812l-9.6-91.8 72.8 6-24.5 89"/><path class="st1" d="M604.7 889.2l-6.6-97 76.3 9-29 92.8"/><path class="st0" d="M583 956.5l8.3-97 74 20.6-42.8 87.4"/><path class="st1" d="M558 1021.2l16-96 72.2 26.5-49.7 83.6"/><path class="st2" d="M453 157.3C566 220.3 559.6 315 559.6 315s-27.8-28.2-77-57.6l20-14.7-31.4 8c-12.8-7.2-27-14.4-42.2-21l23-26.2-44 17.6c-13-4.8-26.7-9.4-41-13.4l19.7-26.3-36.8 22c-13.4-3-27.3-5.7-41.6-7.5l15.7-30.3-39 28c-16.8-1.3-34-1.6-52-.7 0 0 107-98.4 220-35.5z"/><path class="st3" d="M232 354.8l3 40c13-6.7 27.4-13.7 43-20.6l20-51 1.7 42c13.7-5.5 28-10.8 43.4-16l23-45.5-2 39c19.4-5.8 39.8-11 61.3-15.3l28.4-24.4-6.6 20.4c35.5-6 73.4-9.5 113.4-9.4C405.4 168.6 177 279.4 153 445.6c0 0 18.3-14.5 51.5-34L232 355z"/><path class="st2" d="M378.8 560.7l20.3 20.8c4.5-11.8 9.6-24.5 15.4-38l-15.7-47 24.3 27.6c6-13 12.8-27 20.2-41l-13.7-48.7 23.5 30.5c8.7-15.8 18.3-32 28.8-48l-9-33.3 15.7 23c22-32.6 47.5-65.7 77.5-97.3-246.8 40.5-238.5 280.2-191.4 350.5 0 0 5.3-23.6 18.4-61l-14.2-38z"/><path class="st3" d="M746.2 332.8c-108.7-70-189.4-19.7-189.4-19.7s38 11.3 87.2 40.8l3.5-24.5 7.7 31.4c12.4 8 25.3 17 38.4 27.3l12.4-32.5 5.2 47c10.5 9.2 21 19 31.2 30l14-30-2.2 43c9 10.2 17.8 21.2 26.2 33l19.3-28.2-6 47.8c9 14.3 17.2 29.4 25 45.6 0 0 36.2-140.7-72.5-210.8z"/><path class="st3" d="M575.4 212.4l36.7-6c9.5-15.2 19.5-29.7 29.6-43.4l-37-15.2 51-3.3C668.7 128 682 113 695 99.2l-36-12.6 49-1c12-12.3 23.6-23.4 34.4-33l-29-17.8 43.8 4.5C786 14.3 805.7.8 805.7.8 620-13 501.7 140.8 560.5 314.2c11.6-34 26.8-66 44-95.5l-29-6.3z"/><path class="st2" d="M686.6 244.2l27.2 27c21.2-3.3 42-5.7 62.2-7.5l-8.6-43 34 41.2c21.2-1.3 41.4-1.8 60.2-1.8L853 223l23.3 37.3c17.7.3 34 1 49 2l-9.6-32.3 24.7 33.4c42.7 3.4 68.8 8.3 68.8 8.3-140.7-158-394.8-96-453.2 41.8 47.2-19 95.5-31.6 142.2-39.8l-11.6-29.5z"/><ellipse transform="rotate(-12.052 602.31 313.685)" class="st0" cx="602.3" cy="313.7" rx="29.7" ry="29.7"/><path class="st1" d="M602.2 348c-6.5 0-13-2-18.5-5.6-7.7-5-13-12.6-14.8-21.5-2-9-.3-18.2 4.6-25.8 5-7.7 12.6-13 21.5-14.8 18.5-4 36.7 8 40.7 26.3 4 18.4-8 36.6-26.3 40.6-2.4.3-4.8.6-7.2.6zm0-59.6c-1.6 0-3.4.2-5.2.6-13.6 3-22.3 16.3-19.4 30 1.4 6.5 5.3 12 11 15.8 5.6 3.7 12.3 5 19 3.5 13.5-3 22.2-16.3 19.3-30-2.6-11.7-13-20-24.7-20z"/><ellipse transform="rotate(-12.052 543.915 331.19)" class="st0" cx="543.9" cy="331.2" rx="35.2" ry="35.2"/><path class="st1" d="M544 370.8c-18.4 0-35-12.8-39-31.4-4.5-21.4 9.2-42.5 30.6-47 10.4-2.3 21-.4 29.8 5.4 9 5.8 15 14.6 17.2 25s.3 21-5.5 29.8c-5.7 9-14.5 15-25 17.2-2.6.7-5.4 1-8 1zm0-70.3c-2.2 0-4.3.2-6.5.7-16.6 3.5-27 20-23.6 36.4 3.4 16.6 19.8 27 36.3 23.6 8-1.7 15-6.4 19.3-13.3 4.5-7 6-15.2 4.3-23.2-1.8-8-6.5-15-13.4-19.3-5-3.4-10.8-5-16.6-5z"/><g><ellipse transform="rotate(-12.052 560.8 285.295)" class="st0" cx="560.8" cy="285.3" rx="34.6" ry="34.6"/><path class="st1" d="M560.8 324.5c-7.5 0-14.8-2-21.2-6.3-8.8-5.7-14.8-14.4-17-24.7-2.2-10.2-.3-20.7 5.4-29.4s14.4-14.7 24.7-17c10.2-2 20.7-.2 29.4 5.5 9 5.7 15 14.4 17 24.7 2.3 10.2.4 20.7-5.3 29.4-5.7 8.8-14.4 14.8-24.7 17-2.7.6-5.5 1-8.2 1zm0-69.3c-2 0-4 .2-6.3.7-8 1.6-14.6 6.2-19 13s-6 14.8-4.2 22.7c1.7 8 6.3 14.6 13 19s15 6 22.8 4.2c8-1.8 14.7-6.4 19-13.2 4.5-6.8 6-14.8 4.3-22.7-1.7-7.8-6.3-14.5-13-19-5-3.2-10.6-4.8-16.4-4.8z"/></g><g><path class="st4" d="M3.2 1100H1200c-218-9.7-320-171-598.5-171S221.2 1090.4 3.2 1100z"/></g><g><path class="st5" d="M0 1100h1189c-215.3-8-317.7-119.2-594.5-119.2S215.5 1092 0 1100z"/></g><path class="st6" d="M828.6 1044.8l-14-79.8c-49.2-17.2-104-30.2-168.4-34.4 81.4 95.8 182.4 114.2 182.4 114.2z"/><g><g id="Shape_10_5_"><path class="st7" d="M825.5 1036c-22.2-6.4-71-39-123-127.7-36.4-61.8-42.8-107.4-41.7-134.8.8-21 6-34.8 9-41 16 1.7 76.3 15 136.5 117.3 49.7 84.6 56.3 143.2 52.4 166.6l-20.2 3.2-13 16.4z"/><path class="st8" d="M674.5 741.2c7.2 1.4 18.3 4.6 32 12 22.8 12.8 57.5 40.5 92.8 100.5 49.4 84 53 136 51.8 155.8l-10.8 1.7-6 1-4 5-7.2 9.2c-17.6-7.5-62-34-113.8-122-35-59.5-41.3-103-40.6-129.3.4-15.5 3.4-26.8 6-33.8m-9.6-16.7s-42.4 63.6 30.6 188 133 132.4 133 132.4l14-18 22.6-3.5S883 965 813 846C739.2 720 665 724.4 665 724.4z"/></g><path class="st8" d="M770.5 893.7c-45-76.3-69.7-103.7-69.7-103.7s8 29.7 59 110 54.7 78.2 54.7 78.2 6 .5-44-84.5z" id="Shape_11_9_"/></g><path class="st6" d="M419 955.2c-28.3 8.4-54.6 18.2-79.7 28.8 47.3 34 130.2 37.5 130.2 37.5L419 955.2z"/><g><g id="XMLID_352_"><path class="st9" d="M625.2 930c32.5-77 35.8-262.3-42.4-295.3-78.2-33-208.4 99-240.8 176-32.5 77 4.6 166.3 82.8 199.3s168-2.8 200.4-80z" id="XMLID_353_"/></g><path class="st3" d="M576.2 652c70.2 29.6 67 196.4 37.6 266-29.3 69.4-110 101.8-180 72.2-70.3-29.6-103.4-110-74.2-179.4C389 741.4 506 622.5 576.2 652z" id="XMLID_350_"/><path class="st10" d="M567 671c62.3 26.4 59.2 175 33.2 237-26 61.8-97.8 90.7-160.2 64.4s-91.8-97.8-65.7-159.7c26-62 130.2-167.8 192.6-141.6z" id="XMLID_348_"/><path class="st1" d="M510.5 799.5c-33-14-75.4 29.8-87.3 58.3-13.8 32.8-1.8 62.8 30.6 76.4 32.4 13.6 62.3 1.3 76-31.5 11.6-27.4 15.2-88.6-19.3-103.2z" id="XMLID_344_"/><path class="st11" d="M538.7 738.2c1.5.6 2.5 2 2.8 3 .6 1.8.3 5.4 0 11.2-.2 5.8 3 10.6 9.5 13.7 5 2.4 12.3 5.3 17.5 2.5 4.2-2.3 9-10 10.6-12 1-1 2-1.5 3-1.4.6.2 1 0 1.3-.6l1.6-3.2c.4-1 0-2-.8-2.7-9.6-7.4-26-12.6-33.3-13.2-3-.2-7.7-1.3-10.2-2.3-2.5-1-6.6-3.8-8.7-5.6-5.4-4.8-20.6-13-32.6-14.6-1 0-2 .4-2.4 1.4l-1.2 3.4c-.2.5 0 1 .5 1.4.8.7 1 1.8 1 3-.4 2.5-2.5 11.4-1.2 16 1.7 5.7 9 9 14 11 6.8 2.4 12.4 1.3 16.4-3s6.4-7 8.2-7.7c1-.6 2.6-.7 4 0z"/><path class="st12" d="M555 763.4c-1.2-.5-2-2-1.5-3.2.4-1.4 2-2.2 3.3-1.8 5 1.6 9.4 0 12.7-4.6.8-1.2 2.5-1.5 3.7-.6 1.2.8 1.5 2.5.6 3.7-4.6 6.3-11.4 8.7-18.6 6.5h-.2zM509.2 744c-1.2-.4-2-1.8-1.5-3 .4-1.5 2-2.3 3.3-2 5 1.7 9.4 0 12.7-4.5.8-1.2 2.5-1.5 3.7-.6 1.2.7 1.5 2.4.6 3.6-4.6 6.4-11.4 8.8-18.6 6.6h-.2z"/><path class="st13" d="M520.2 782.2c-5.6-2.4-10.2-6.6-13-12-1.2-2.3-.3-5 2-6.3s5-.4 6.3 2c1.8 3.4 4.8 6 8.4 7.6 3.5 1.5 7.6 1.7 11.3.6 2.5-.7 5 .7 5.8 3 .8 2.6-.6 5-3 6-6 1.6-12.2 1.3-17.8-1z"/><path class="st14" d="M506.6 808.8c-26.3-11-63.8 28.5-74 53-12 28.2-1 52 25 63 25.8 11 50.6 3 63-26 10.4-25 12.5-78.8-14-90z" id="XMLID_347_"/><path class="st15" d="M448.4 866.4s-.3 0-.4-.2c-2-1-2.6-3.5-1.6-5.4 8-14.6 23.4-33 42.4-40.3 2-.8 4.3.2 5 2.3 1 2 0 4.3-2.2 5-14 5.6-29 20-38.3 36.8-.8 1.8-3 2.5-5 1.8z"/><ellipse transform="rotate(-67.164 445.2 876.22)" class="st15" cx="445.2" cy="876.2" rx="4.2" ry="4.2"/></g><g><path class="st16" d="M103 1100h983c-153-17.5-262.5-60.7-491.5-60.7S256 1082.5 103 1100z"/></g></svg>